HIERARCHY
ROOT Hips
{
	OFFSET -0.001795 -0.223333 0.028219
	CHANNELS 6 Xposition Yposition Zposition Zrotation Yrotation Xrotation 
	JOINT LeftUpLeg
	{
		OFFSET 0.069520 -0.091406 -0.006815
		CHANNELS 3 Zrotation Yrotation Xrotation
		JOINT LeftLeg
		{
			OFFSET 0.034277 -0.375199 -0.004496
			CHANNELS 3 Zrotation Yrotation Xrotation
			JOINT LeftFoot
			{
				OFFSET -0.013596 -0.397961 -0.043693
				CHANNELS 3 Zrotation Yrotation Xrotation
				JOINT LeftToe
				{
					OFFSET 0.026358 -0.055791 0.119288
					CHANNELS 3 Zrotation Yrotation Xrotation
					End Site
					{
						OFFSET 0.000000 0.000000 0.000000
					}
				}
			}
		}
	}
	JOINT RightUpLeg
	{
		OFFSET -0.067670 -0.090522 -0.004320
		CHANNELS 3 Zrotation Yrotation Xrotation
		JOINT RightLeg
		{
			OFFSET -0.038290 -0.382569 -0.008850
			CHANNELS 3 Zrotation Yrotation Xrotation
			JOINT RightFoot
			{
				OFFSET 0.015774 -0.398415 -0.042312
				CHANNELS 3 Zrotation Yrotation Xrotation
				JOINT RightToe
				{
					OFFSET -0.025372 -0.048144 0.123348
					CHANNELS 3 Zrotation Yrotation Xrotation
					End Site
					{
						OFFSET 0.000000 0.000000 0.000000
					}
				}
			}
		}
	}
	JOINT Spine
	{
		OFFSET -0.002533 0.108963 -0.026696
		CHANNELS 3 Zrotation Yrotation Xrotation
		JOINT Spine1
		{
			OFFSET 0.005487 0.135180 0.001092
			CHANNELS 3 Zrotation Yrotation Xrotation
			JOINT Spine2
			{
				OFFSET 0.001457 0.052922 0.025425
				CHANNELS 3 Zrotation Yrotation Xrotation
				JOINT Neck
				{
					OFFSET -0.002778 0.213870 -0.042857
					CHANNELS 3 Zrotation Yrotation Xrotation
					JOINT Head
					{
						OFFSET 0.005152 0.064970 0.051349
						CHANNELS 3 Zrotation Yrotation Xrotation
						End Site
						{
							OFFSET 0.000000 0.000000 0.000000
						}
					}
				}
				JOINT LeftShoulder
				{
					OFFSET 0.078845 0.121749 -0.034090
					CHANNELS 3 Zrotation Yrotation Xrotation
					JOINT LeftArm
					{
						OFFSET 0.090977 0.030469 -0.008868
						CHANNELS 3 Zrotation Yrotation Xrotation
						JOINT LeftForeArm
						{
							OFFSET 0.259612 -0.012772 -0.027456
							CHANNELS 3 Zrotation Yrotation Xrotation
							JOINT LeftHand
							{
								OFFSET 0.249234 0.008986 -0.001171
								CHANNELS 3 Zrotation Yrotation Xrotation
								End Site
								{
									OFFSET 0.000000 0.000000 0.000000
								}
							}
						}
					}
				}
				JOINT RightShoulder
				{
					OFFSET -0.081759 0.118833 -0.038615
					CHANNELS 3 Zrotation Yrotation Xrotation
					JOINT RightArm
					{
						OFFSET -0.096012 0.032551 -0.009143
						CHANNELS 3 Zrotation Yrotation Xrotation
						JOINT RightForeArm
						{
							OFFSET -0.253742 -0.013329 -0.021401
							CHANNELS 3 Zrotation Yrotation Xrotation
							JOINT RightHand
							{
								OFFSET -0.255298 0.007772 -0.005559
								CHANNELS 3 Zrotation Yrotation Xrotation
								End Site
								{
									OFFSET 0.000000 0.000000 0.000000
								}
							}
						}
					}
				}
			}
		}
	}
}
MOTION
Frames: 6
Frame Time: 0.050000
0.000000 0.972946 0.000000 -2.683605 -5.432781 6.480762 2.049685 -0.650925 -8.592180 1.936550 -0.309127 1.787838 -3.199811 -2.323308 9.774141 0.000000 0.000000 0.000000 3.008925 1.452816 -12.306816 -3.860624 0.710127 4.398601 6.365125 5.912832 13.251536 0.000000 0.000000 0.000000 0.831433 -0.456380 9.674544 -4.112491 1.997249 1.370596 -6.411416 3.914326 9.787885 5.343998 -3.092839 -8.076723 0.000000 0.000000 0.000000 -4.992768 -20.681720 7.609804 -50.887440 -21.352815 2.494590 6.153871 -23.640139 -0.390238 0.000000 0.000000 0.000000 7.690565 13.666855 5.549177 70.430794 17.207235 3.787264 4.481990 33.171518 2.694990 0.000000 0.000000 0.000000 
0.002837 0.974154 -0.000199 -3.044322 -6.751247 6.692563 2.786481 -0.589339 -8.453091 1.405100 -0.206105 0.953378 -3.248195 -2.259233 10.535718 0.000000 0.000000 0.000000 3.495466 1.639917 -13.379060 -4.085313 0.903802 6.331945 6.015941 5.837865 11.973629 0.000000 0.000000 0.000000 -0.201747 -0.339223 10.141958 -3.719969 1.785489 0.582203 -7.636758 5.369607 9.120015 6.078603 -3.724459 -6.973190 0.000000 0.000000 0.000000 -5.070057 -20.140781 7.272780 -51.603450 -19.695346 1.831135 6.663731 -24.290511 -0.557515 0.000000 0.000000 0.000000 8.765126 14.075279 5.987072 69.720607 17.396510 3.978694 5.642192 33.569584 3.118291 0.000000 0.000000 0.000000 
0.005665 0.975367 0.000456 -3.630209 -6.910626 6.397122 3.168357 -0.542951 -8.123373 1.749787 -0.242654 0.787982 -3.721929 -3.044245 10.663394 0.000000 0.000000 0.000000 4.186505 1.570897 -12.563211 -4.373607 0.905910 5.867970 6.195394 5.712109 12.658249 0.000000 0.000000 0.000000 -0.143904 -0.342626 9.988170 -3.988608 1.906771 0.325132 -8.296809 6.438618 9.442403 6.893540 -4.260841 -7.019909 0.000000 0.000000 0.000000 -4.376613 -20.597509 7.270388 -51.966824 -19.364069 1.626824 4.394509 -24.026239 -0.121824 0.000000 0.000000 0.000000 8.028482 14.135803 6.088101 71.421426 18.862733 5.328151 5.101239 32.907285 2.955997 0.000000 0.000000 0.000000 
0.008716 0.977343 0.002128 -4.033630 -7.201294 6.615014 3.299765 -0.499059 -7.487403 1.961185 -0.207339 -0.521634 -4.547453 -4.077562 11.697559 0.000000 0.000000 0.000000 4.324203 1.562277 -12.453303 -4.253185 0.897689 5.983656 6.317665 6.140157 12.311040 0.000000 0.000000 0.000000 -0.595130 -0.272911 9.416882 -3.977513 1.898098 0.221400 -8.468417 6.757131 9.410975 6.644852 -4.248090 -6.027125 0.000000 0.000000 0.000000 -4.541091 -20.468415 7.211753 -53.367649 -17.898865 1.037811 3.527914 -23.957449 0.053529 0.000000 0.000000 0.000000 7.707326 14.576391 6.266425 71.286569 19.274834 5.645412 6.696115 32.853390 3.383440 0.000000 0.000000 0.000000 
0.012157 0.977720 0.004874 -4.304532 -6.755704 5.935778 3.276274 -0.430735 -6.278770 1.970675 -0.180480 -1.071367 -4.306546 -3.776162 11.285359 0.000000 0.000000 0.000000 4.375549 1.422040 -11.452213 -4.423650 0.918447 5.909709 5.927581 5.297127 12.494754 0.000000 0.000000 0.000000 -0.711755 -0.263270 9.328848 -4.563183 2.201927 0.712589 -8.295762 6.929977 9.515391 6.543870 -4.117624 -6.207036 0.000000 0.000000 0.000000 -5.308100 -20.500587 7.222282 -53.852940 -17.191060 0.724724 3.147547 -23.232205 0.116987 0.000000 0.000000 0.000000 7.354266 14.525553 6.237848 72.427042 20.310536 6.621440 6.042431 32.192100 3.137039 0.000000 0.000000 0.000000 
0.016031 0.977290 0.008367 -4.248394 -5.413799 5.442691 3.061164 -0.396624 -5.457424 1.900649 -0.135012 -1.746006 -4.999923 -4.514941 11.907626 0.000000 0.000000 0.000000 4.101304 1.327437 -10.868742 -3.954924 0.909125 6.599001 5.355375 5.038022 11.426190 0.000000 0.000000 0.000000 -1.120366 -0.233029 9.508790 -4.580024 2.181301 0.157209 -7.864765 7.158304 10.150081 6.341341 -3.917835 -6.258070 0.000000 0.000000 0.000000 -5.146389 -20.121086 6.964971 -55.590960 -15.725176 -0.024008 0.669026 -24.283282 0.615610 0.000000 0.000000 0.000000 6.743573 14.544988 6.262337 72.889827 20.755965 7.137607 6.854803 31.965180 3.371587 0.000000 0.000000 0.000000 
